HIERARCHY
ROOT SimulationBone
{
	OFFSET 0.000000 0.000000 0.000000
	CHANNELS 6 Xposition Yposition Zposition Zrotation Yrotation Xrotation 
	JOINT Hips
	{
		OFFSET 0.000000 0.000000 0.000000
		CHANNELS 6 Xposition Yposition Zposition Zrotation Yrotation Xrotation 
		JOINT LeftUpLeg
		{
			OFFSET 0.103454 1.857841 10.548502
			CHANNELS 3 Zrotation Yrotation Xrotation
			JOINT LeftLeg
			{
				OFFSET 43.500000 -0.000034 -0.000004
				CHANNELS 3 Zrotation Yrotation Xrotation
				JOINT LeftFoot
				{
					OFFSET 42.372192 0.000027 -0.000002
					CHANNELS 3 Zrotation Yrotation Xrotation
					JOINT LeftToe
					{
						OFFSET 17.300003 0.000001 0.000001
						CHANNELS 3 Zrotation Yrotation Xrotation
						End Site
						{
							OFFSET 0.000000 0.000000 0.000000
						}
					}
				}
			}
		}
		JOINT RightUpLeg
		{
			OFFSET 0.103461 1.857837 -10.548502
			CHANNELS 3 Zrotation Yrotation Xrotation
			JOINT RightLeg
			{
				OFFSET 43.500046 -0.000034 0.000013
				CHANNELS 3 Zrotation Yrotation Xrotation
				JOINT RightFoot
				{
					OFFSET 42.372261 0.000004 0.000013
					CHANNELS 3 Zrotation Yrotation Xrotation
					JOINT RightToe
					{
						OFFSET 17.299986 -0.000008 0.000013
						CHANNELS 3 Zrotation Yrotation Xrotation
						End Site
						{
							OFFSET 0.000000 0.000000 0.000000
						}
					}
				}
			}
		}
		JOINT Spine
		{
			OFFSET 6.901964 -2.603740 0.000003
			CHANNELS 3 Zrotation Yrotation Xrotation
			JOINT Spine1
			{
				OFFSET 12.588108 0.000020 -0.000003
				CHANNELS 3 Zrotation Yrotation Xrotation
				JOINT Spine2
				{
					OFFSET 12.343194 -0.000020 0.000000
					CHANNELS 3 Zrotation Yrotation Xrotation
					JOINT Neck
					{
						OFFSET 25.832893 -0.000004 0.000001
						CHANNELS 3 Zrotation Yrotation Xrotation
						JOINT Head
						{
							OFFSET 11.766617 0.000023 0.000000
							CHANNELS 3 Zrotation Yrotation Xrotation
							End Site
							{
								OFFSET 0.000000 0.000000 0.000000
							}
						}
					}
					JOINT LeftShoulder
					{
						OFFSET 19.745911 -1.480362 6.000106
						CHANNELS 3 Zrotation Yrotation Xrotation
						JOINT LeftArm
						{
							OFFSET 11.284124 -0.000010 -0.000029
							CHANNELS 3 Zrotation Yrotation Xrotation
							JOINT LeftForeArm
							{
								OFFSET 33.000050 0.000006 0.000043
								CHANNELS 3 Zrotation Yrotation Xrotation
								JOINT LeftHand
								{
									OFFSET 25.200006 0.000015 0.000002
									CHANNELS 3 Zrotation Yrotation Xrotation
									End Site
									{
										OFFSET 0.000000 0.000000 0.000000
									}
								}
							}
						}
					}
					JOINT RightShoulder
					{
						OFFSET 19.746103 -1.480366 -6.000076
						CHANNELS 3 Zrotation Yrotation Xrotation
						JOINT RightArm
						{
							OFFSET 11.284135 -0.000031 -0.000006
							CHANNELS 3 Zrotation Yrotation Xrotation
							JOINT RightForeArm
							{
								OFFSET 33.000095 0.000024 0.000006
								CHANNELS 3 Zrotation Yrotation Xrotation
								JOINT RightHand
								{
									OFFSET 25.199774 0.000153 0.000421
									CHANNELS 3 Zrotation Yrotation Xrotation
									End Site
									{
										OFFSET 0.000000 0.000000 0.000000
									}
								}
							}
						}
					}
				}
			}
		}
	}
}
MOTION
Frames: 9
Frame Time: 0.016667
-169.817624 0.000000 197.321458 0.000000 -86.456266 0.000000 1.052260 83.433151 0.150307 96.681931 -1.318239 178.673533 148.925307 2.076003 179.959174 -36.289279 -2.769664 -4.155447 64.517618 3.987680 2.174584 21.454550 0.003084 -0.000000 -162.736606 -0.952899 -173.231684 -41.708857 0.527222 1.930868 77.901851 -1.662236 -0.996841 21.454563 -0.003099 -0.000019 8.659660 -0.871628 2.983651 7.257789 -1.928283 5.907607 6.941348 -1.892502 5.919100 14.433303 5.718351 11.647878 -14.786335 -2.998563 13.537127 -146.493690 -71.296701 -35.891399 4.721951 51.564283 49.149583 -24.787989 -10.522520 0.851375 10.380188 4.371768 36.600568 -171.802684 74.712915 9.823694 -25.156013 -54.842906 -5.369331 -54.498546 20.091838 -2.275657 0.668006 8.567811 -10.139047 
-169.722517 0.000000 199.437993 0.000000 -86.263108 0.000000 1.115670 83.545109 0.082233 96.834440 -1.675165 178.202669 149.450728 2.072117 179.399579 -38.533398 -3.165805 -4.006329 67.065810 3.941091 2.519767 21.454553 0.003093 0.000000 -165.313022 0.174266 -172.464594 -48.592693 0.141469 1.929266 74.485476 -0.860501 1.702371 21.454563 -0.003099 -0.000020 8.695571 -1.028839 2.854941 7.324629 -2.235945 5.640129 7.007968 -2.201772 5.653492 15.076347 5.363881 11.981345 -14.956192 -3.093176 13.894300 -147.289169 -71.004052 -35.084361 3.692956 51.637375 47.836355 -24.509977 -10.590199 0.851746 9.251007 2.072149 34.231443 -173.514146 74.929266 8.072606 -26.277121 -55.648556 -5.608989 -49.943181 20.019560 -2.106161 2.156388 8.024206 -8.078551 
-169.632207 0.000000 201.537967 0.000000 -86.039773 0.000000 1.181916 83.777496 0.027994 97.006207 -1.960207 177.901716 150.459668 2.037807 177.858372 -39.951667 -2.977370 -3.293088 69.272078 3.497281 2.970353 21.454557 0.003104 0.000001 -168.184283 1.175597 -172.048531 -55.508789 -0.024311 2.305074 71.132574 -0.313888 4.054874 21.454560 -0.003102 -0.000021 8.749375 -1.153545 2.666704 7.430828 -2.475597 5.255095 7.113891 -2.443737 5.269920 15.504798 4.881476 12.244083 -14.922548 -3.090051 14.139782 -148.380189 -70.872943 -33.967181 2.330569 51.984227 46.315706 -24.147633 -10.682420 0.852174 8.238887 0.111362 32.077805 -174.907771 75.176050 6.648285 -27.829620 -56.415714 -5.780077 -45.184931 19.809893 -1.948158 3.740476 6.933425 -6.308574 
-169.547049 0.000000 203.624382 0.000000 -85.796983 0.000000 1.232194 84.101206 -0.072301 97.116723 -2.348697 177.658348 151.735617 2.283570 176.597033 -40.700716 -2.702909 -2.723652 71.188928 3.112020 3.276150 21.454554 0.003105 0.000001 -171.394834 2.103979 -171.473675 -61.962897 -0.477878 2.998428 67.632710 -0.449448 4.696093 21.454558 -0.003107 -0.000020 8.787005 -1.282473 2.461320 7.505810 -2.721569 4.835701 7.188579 -2.692225 4.852017 15.736424 4.538767 12.444740 -14.606662 -3.032105 14.299875 -149.522695 -70.991700 -32.788522 0.823173 52.585889 44.405313 -23.901859 -10.741153 0.852282 7.492704 -1.124730 30.932573 -175.236180 75.243092 6.312919 -29.446963 -57.025528 -6.574579 -40.390683 19.602297 -1.805714 4.996965 5.595345 -4.906137 
-169.469333 0.000000 205.698935 0.000000 -85.539948 0.000000 1.267295 84.540421 -0.187651 97.160635 -2.672865 177.459172 153.233230 2.618303 175.757365 -40.840265 -2.417906 -2.319410 72.784954 2.808477 3.433242 21.454551 0.003095 0.000001 -174.786344 2.885609 -170.880009 -67.683547 -1.070760 3.917555 65.660595 -1.055998 4.563933 21.454557 -0.003109 -0.000017 8.796923 -1.376814 2.260957 7.527353 -2.897481 4.429064 7.209865 -2.870579 4.446446 15.980880 4.345574 12.525952 -14.251303 -3.006557 14.349480 -150.847881 -71.328482 -31.415723 -1.076578 53.357747 42.245651 -23.774459 -10.785474 0.853408 7.157810 -1.812552 30.725287 -174.872787 75.128416 6.683705 -30.530415 -57.554184 -7.349155 -36.197696 19.108460 -1.655840 6.164148 3.949894 -5.035647 
-169.403228 0.000000 207.761022 0.000000 -85.270880 0.000000 1.289131 85.110859 -0.276766 97.159966 -2.749756 177.324963 154.948561 2.817762 175.276569 -40.428978 -2.126801 -1.989232 74.029961 2.534083 3.479885 21.454550 0.003080 0.000000 -178.184189 3.428190 -170.457723 -72.482812 -1.577944 4.910778 66.620896 -1.715302 4.772148 21.454556 -0.003103 -0.000011 8.781232 -1.394720 2.074442 7.500301 -2.920677 4.055536 7.182636 -2.896027 4.073070 16.413029 4.244477 12.431041 -14.106780 -3.082706 14.258685 -152.490424 -71.803898 -29.714050 -3.655435 54.188160 39.989652 -23.725646 -10.847589 0.856712 7.276738 -2.247101 31.149288 -174.387716 74.872498 7.177990 -30.604287 -58.063443 -7.483050 -33.165759 18.098969 -1.512546 7.543968 2.011406 -7.594885 
-169.351801 0.000000 209.810659 0.000000 -84.992831 0.000000 1.278439 85.741089 -0.342722 97.185236 -2.680371 177.320131 156.834257 2.992785 175.436769 -39.627896 -2.008811 -1.864623 74.993810 2.386361 3.410856 21.454551 0.003074 0.000000 178.492077 3.825800 -170.014965 -76.350832 -2.015846 5.873621 68.907756 -2.352314 5.162082 21.454557 -0.003099 -0.000008 8.775442 -1.357621 1.877375 7.494964 -2.833737 3.664103 7.177167 -2.811446 3.681129 16.879569 4.167808 12.181729 -14.131865 -3.219210 14.034649 -154.193909 -72.292098 -27.951521 -6.937616 54.941179 37.518153 -23.748677 -10.935128 0.862707 7.334868 -2.568333 31.773728 -173.845526 74.500926 7.730270 -29.824338 -58.465598 -7.854089 -30.999697 17.005779 -1.404265 8.725195 0.293497 -11.231432 
-169.316092 0.000000 211.850326 0.000000 -84.710477 0.000000 1.219984 86.360560 -0.396669 97.283348 -2.600794 177.498188 158.836963 3.257359 176.449410 -38.578246 -2.201585 -2.060286 75.754979 2.448942 3.233349 21.454552 0.003088 -0.000000 175.279975 4.201662 -169.363736 -79.318309 -2.428168 6.750751 70.593917 -2.988651 5.324906 21.454560 -0.003105 -0.000011 8.806271 -1.295857 1.647383 7.564011 -2.696425 3.207524 7.246088 -2.676879 3.223736 17.183398 4.045205 11.802826 -14.182081 -3.313967 13.663341 -155.645556 -72.700696 -26.451543 -10.822808 55.494089 34.755063 -23.854275 -11.065283 0.872766 6.853154 -2.877318 32.233171 -173.167687 74.062452 8.421738 -28.453134 -58.698439 -9.419236 -29.267238 16.294155 -1.328460 9.179903 -0.845729 -14.338184 
-169.296302 0.000000 213.883978 0.000000 -84.426991 0.000000 1.143185 86.989388 -0.441367 97.349696 -2.504899 177.817840 160.916866 3.496594 177.857388 -37.237132 -2.528042 -2.374095 76.328176 2.599627 3.036931 21.454553 0.003104 0.000000 172.114770 4.506198 -168.656591 -81.411619 -2.717415 7.580958 71.449836 -3.737961 4.937407 21.454563 -0.003113 -0.000015 8.831176 -1.213099 1.403242 7.621405 -2.515829 2.724280 7.303378 -2.499190 2.739416 17.280534 3.810353 11.253489 -13.993134 -3.128918 13.007979 -156.956953 -73.073499 -25.097827 -15.058792 55.839465 31.973231 -24.090048 -11.318070 0.892407 6.046639 -3.319255 32.530021 -172.193316 73.714512 9.418768 -26.582458 -58.976079 -11.945734 -27.879783 15.901956 -1.273806 9.194291 -1.662818 -16.709149 
